# xmcd CD database file
#
# Track frame offsets:
#	167
#	10567
#	23821
#	40391
#	71969
#	83102
#	103678
#
# Disc length: 1568 seconds
#
# Revision: 0
# Processed by: cddbd v1.5.2PL0 Copyright (c) Steve Scherf et al.
# Submitted via: CDex 1.51
#
DISCID=51061e07
DTITLE=Rahsaan Roland Kirk - Jazz, une émission présentée par Herb Pomeroy pour la WGBH-TV, ernregistrée à Boston le 12 janvier 1966
DYEAR=2006
DGENRE=Jazz
TTITLE0=Fine and dandy
TTITLE1=The blessing
TTITLE2=Interview
TTITLE3=Rip, rig and panic
TTITLE4=Interview
TTITLE5=Groovin high
TTITLE6=Reeds and deeds
EXTD=YEAR: 2006
EXTT0=
EXTT1=
EXTT2=
EXTT3=
EXTT4=
EXTT5=
EXTT6=
PLAYORDER=
